PathFileType	4	(X/Y/Z)	OpenSim_Sub08_CSStiffKnee_Accel.trc
DataRate	CameraRate	NumFrames	NumMarkers	Units	OrigDataRate	OrigDataStartFrame	OrigNumFrames
100	100	24	8	m	100	4622	5282
Frame#	Time	torso_imu_offset_imu	pelvis_imu_offset_imu	tibia_r_imu_offset_imu	femur_r_imu_offset_imu	tibia_l_imu_offset_imu	femur_l_imu_offset_imu	toes_r_imu_offset_imu	toes_l_imu_offset_imu
				X1	Y1	Z1	X2	Y2	Z2	X3	Y3	Z3	X4	Y4	Z4	X5	Y5	Z5	X6	Y6	Z6	X7	Y7	Z7	X8		Y8	Z8	

4622	46.21000000	9.51492824	0.14047955	5.47931879	9.64461136	-0.97333304	2.92425994	9.73501531	1.43767382	1.32851131	9.01958317	-2.60864391	2.92719138	9.81757118	-1.79898336	-0.94488848	9.33317188	1.88728550	-1.91692532	5.63534533	-0.70081149	8.45312404	5.53479168	0.55271205	10.95354413
4623	46.22000000	9.57000262	0.16088558	5.55227947	9.72855449	-0.84910431	2.81145500	9.69750653	1.44382613	1.34245090	9.05600768	-2.99919484	2.98403722	9.65580530	-2.12518839	-0.98146250	9.29697098	1.98441858	-1.91125882	5.87780808	-0.21310153	8.38877586	5.82614572	0.66932676	10.84823531
4624	46.23000000	9.56637629	0.15901614	5.50405147	9.84039432	-0.71614847	2.75264379	9.66495620	1.32159016	1.31792158	9.07461997	-3.29627136	3.00971074	9.56805801	-2.06701745	-1.08922038	9.33788918	2.17131456	-2.01663826	6.38536459	0.15194137	8.71814578	5.93751945	0.57892854	10.74994601
4625	46.24000000	9.53785549	0.16551899	5.52591490	9.89825961	-0.68857158	2.74523120	9.54271531	1.22053074	1.25004989	8.96328870	-3.42631859	2.84043807	9.88276880	-2.06814805	-1.13788659	9.38835655	2.33526618	-1.96953401	6.84143333	0.14386954	8.91910441	5.75666885	-0.04569343	10.79283591
4626	46.25000000	9.53697914	0.24461053	5.58857380	9.98390398	-0.74600498	2.72926017	9.27110480	1.24857199	1.08976947	8.88070225	-3.62226841	2.63929511	10.14516578	-2.09130610	-0.87756913	9.56187588	2.53732223	-1.69427307	6.44294986	0.06287070	8.39438971	5.52687638	0.04534393	10.99041672
4627	46.26000000	9.51858209	0.32569689	5.67618539	10.03133948	-0.87878789	2.67622350	9.04153222	1.24180567	1.03902299	8.86833268	-3.81572253	2.72088837	10.16897219	-2.21992592	-0.94886253	9.98698468	2.78126827	-1.49115660	6.07990587	0.24840152	7.81597262	5.54593550	0.74498807	11.23847207
4628	46.27000000	9.56829412	0.29771778	5.72994715	10.06356011	-1.04498171	2.65457494	8.99274131	0.99460622	1.21274570	8.81308791	-3.88145436	2.78743565	10.28331971	-2.48209948	-0.97834477	10.02619302	3.13513233	-1.47337342	6.08913915	0.34695508	7.56575118	5.67446498	0.47761391	11.05993351
4629	46.28000000	9.58309555	0.32613174	5.78686751	10.11533559	-1.17283241	2.66638723	9.03926878	0.68841721	1.38346220	8.85181381	-3.76220617	2.86764641	10.38671871	-2.53279103	-0.83762578	9.79073123	3.47032891	-1.45192061	5.83658952	0.11708142	7.16419954	6.00295331	0.11405740	10.80896477
4630	46.29000000	9.56677292	0.34015290	5.89117406	10.16694515	-1.27473040	2.66246678	9.09397358	0.49881370	1.44766212	8.94381961	-3.64565747	2.93712147	10.27109568	-2.51115353	-0.82277872	9.69638929	3.48452128	-1.40408065	5.92460464	-0.00044725	6.76093380	5.98109215	0.07150860	10.85749167
4631	46.30000000	9.67381114	0.37353967	5.92432324	10.17920995	-1.29276250	2.72935140	9.00473992	0.33992024	1.45248220	8.93121177	-3.67139420	2.99511683	10.12918069	-2.74735847	-0.76053645	9.60969759	3.18509184	-1.40159079	6.20215917	0.15707171	6.57279025	5.48867547	0.02984231	11.00006456
4632	46.31000000	9.72404177	0.43347528	6.00363198	10.17212155	-1.22093811	2.74368198	8.93747176	0.05471283	1.32167559	8.86393558	-3.72909424	3.02790148	9.96555170	-2.71879110	-0.73387124	9.68170720	2.69896837	-1.46580755	6.31545805	0.08696068	6.51566807	5.97391671	0.12909714	10.75996048
4633	46.32000000	9.69831305	0.45635483	6.04125036	10.12359747	-1.06597058	2.72518918	9.00014443	-0.21199755	1.09653756	8.85642531	-3.70984320	2.91901702	10.13319201	-2.43270002	-0.78018520	9.79073185	2.31739630	-1.60770649	6.26845314	-0.19015442	6.23509760	6.13593231	0.14593198	10.68808992
4634	46.33000000	9.69915879	0.53409852	6.11912423	10.02048143	-0.87183947	2.69460593	8.99064240	-0.16116063	1.03244978	8.90208407	-3.75018432	2.86597505	10.33795102	-2.12559495	-0.85797732	9.77915454	2.09076466	-1.79686959	6.13466315	0.14886199	5.84063701	5.90387141	0.13173180	10.73814786
4635	46.34000000	9.69839717	0.57765995	6.23786136	9.83343380	-0.68810080	2.69991158	8.80108510	-0.10751407	1.16153008	8.88392216	-3.82975877	2.77448589	10.21301666	-1.92472018	-0.73611490	9.70723061	2.09178354	-1.88373400	6.53078601	0.58453210	5.66160947	5.76853465	0.29866007	10.88970913
4636	46.35000000	9.66568542	0.61646906	6.28416144	9.63918710	-0.65186531	2.75615835	8.63252707	-0.04940759	1.09760604	8.80990442	-3.95962947	2.65390201	10.07776245	-1.78936245	-0.74465332	9.60578576	2.32064206	-1.92687476	6.85642295	0.70466501	5.40628825	5.85357297	0.48446266	10.86508061
4637	46.36000000	9.54650027	0.70590344	6.26864500	9.40916253	-0.62008132	2.78586625	8.58996913	0.28836507	0.97198189	8.81817680	-4.04309424	2.66751856	10.18294729	-1.55605200	-0.74456120	9.49991084	2.59061735	-1.95338419	7.15501419	0.95128112	5.09150978	5.94919873	0.26979752	10.79758242
4638	46.37000000	9.45587126	0.79163116	6.24169269	9.16329401	-0.55626629	2.86650103	8.53185079	0.69883943	0.87879489	8.84596763	-3.99958921	2.78092400	10.49524802	-1.37375354	-0.63866627	9.37466890	2.91469627	-1.83568335	7.83933068	0.86983575	4.62872474	6.11047874	0.15322838	10.64338433
4639	46.38000000	9.34350232	0.96506690	6.24588624	8.89353342	-0.54394751	2.75569588	8.39586847	0.86036970	0.48348181	8.74670754	-4.03321392	2.83224969	10.36211299	-1.18779032	-0.51791287	9.22295433	3.23164617	-1.61130165	7.89794448	0.77229789	4.08458813	5.91738331	0.21727110	10.59257190
4640	46.39000000	9.28477420	1.05194572	6.16296511	8.65646130	-0.43502130	2.52323294	8.07578960	0.85972278	0.22583636	8.50818369	-4.10702134	2.79835148	10.08589826	-0.85085292	-0.38169390	9.06446465	3.58175240	-1.32006331	8.12308191	0.24167919	3.84891225	5.74534063	0.38677736	10.66900133
4641	46.40000000	9.18890702	1.03574970	6.04329521	8.65206514	-0.41889341	2.22164787	7.69766176	0.69051093	-0.02532811	8.23682369	-4.17009921	2.80553052	10.05835547	-0.26263161	-0.22478717	8.79644057	3.93695371	-1.02510873	9.01270350	-0.26009853	3.48957601	6.14849554	0.43314685	10.42323291
4642	46.41000000	8.94417861	1.07289110	5.89487506	8.71657025	-0.50370770	1.80482022	7.48053300	0.41310450	-0.30275865	7.97155255	-4.35567507	2.94623970	10.28217661	0.29693072	0.05845732	8.60597793	4.22970062	-0.78052312	8.39472770	-0.97754181	5.17236122	6.20475585	0.18445236	9.99155628
4643	46.42000000	8.79037993	1.09897714	5.73637456	8.81561710	-0.68231817	1.61388952	7.39317212	0.44723509	-0.36553979	7.74689260	-4.56025928	3.15000055	10.56425409	0.55952622	0.41068475	8.40993996	4.56921704	-0.57751927	4.13680295	-5.68999922	-0.60217577	5.86972631	-0.06475531	10.14253260
4644	46.43000000	8.86976031	1.05768007	5.60924847	9.14356871	-1.00072576	1.40425208	7.81462201	0.53658079	-0.19820830	7.64243691	-4.51667783	3.11623486	10.66228976	0.92447889	0.75651866	8.16052687	4.74209921	-0.43018744	3.37142762	-4.65304719	2.71914298	4.81974841	-0.37401300	10.43602694
4645	46.44000000	9.23861169	0.95113019	5.62812244	9.65565716	-1.16534578	1.37770941	9.30657848	0.36490064	-1.07454651	8.07791615	-4.24312166	2.98468989	10.70087698	1.75802833	1.10173834	8.12893745	4.84670725	-0.42182536	3.30175805	0.81048185	12.70802737	5.22741932	-0.05863605	10.52143376
